<svg version="1.1" id="Layer_1" xmlns="http://www.w3.org/2000/svg" xmlns:xlink="http://www.w3.org/1999/xlink" x="0px" y="0px"
	 width="100%" viewBox="0 0 1485 348" enable-background="new 0 0 1485 348" xml:space="preserve">
<path fill="none" opacity="1.000000" stroke="none" 
	d="
M1241.000000,349.000000 
	C828.833374,349.000000 417.166718,348.994049 5.500096,349.092957 
	C1.751175,349.093842 0.901628,348.249817 0.905474,344.499969 
	C1.021555,231.333420 1.019895,118.166725 0.904718,5.000191 
	C0.901233,1.576424 1.576372,0.905549 4.999924,0.906233 
	C497.333191,1.004605 989.666443,1.004602 1481.999756,0.906275 
	C1485.422607,0.905591 1486.098877,1.575491 1486.095337,4.999913 
	C1485.980225,118.333115 1485.980225,231.666473 1486.095337,344.999695 
	C1486.098755,348.423157 1485.424927,349.101410 1482.000122,349.096100 
	C1401.833496,348.972015 1321.666748,349.000000 1241.000000,349.000000 
z"/>
<path fill="#fff" opacity="1.000000" stroke="none" 
	d="
M473.907379,291.000031 
	C455.591278,290.998444 437.761871,291.019318 419.932587,290.982483 
	C413.558472,290.969299 412.387177,289.514954 413.048279,283.179810 
	C413.285248,280.908936 414.067139,279.379791 416.537811,279.097900 
	C419.345032,278.777588 422.134338,278.258759 424.948059,278.044647 
	C432.071747,277.502533 434.972534,274.531708 434.981445,267.236481 
	C435.018524,236.909958 435.001373,206.583344 435.003632,176.256760 
	C435.003845,173.257431 435.021332,170.257919 434.995178,167.258804 
	C434.934845,160.342209 434.637573,160.058914 427.505402,160.003693 
	C424.339600,159.979187 421.173523,159.991150 418.007904,159.955658 
	C415.721283,159.930023 413.417023,159.612885 413.226959,156.746826 
	C413.036346,153.871872 411.799500,149.832001 415.360168,148.748718 
	C428.819366,144.653946 441.732941,138.408768 456.181580,137.979980 
	C460.524902,137.851074 461.997864,139.717468 462.054291,143.937607 
	C462.197144,154.624115 462.273865,154.507187 471.777283,149.386627 
	C482.652008,143.527206 493.788727,138.297272 506.261566,136.710220 
	C521.510132,134.769989 534.340027,138.979340 543.367920,151.878052 
	C546.120728,155.811157 548.103271,156.539200 552.501587,154.002167 
	C565.770142,146.348694 579.325745,139.025940 594.799072,136.841843 
	C616.377014,133.796021 633.383057,144.604385 638.968140,165.051437 
	C640.376038,170.205902 641.062988,175.439194 641.044556,180.829941 
	C640.947693,209.156631 640.990479,237.483856 641.006653,265.810883 
	C641.011597,274.508514 643.773987,277.417572 652.352051,278.054291 
	C654.335449,278.201538 656.305542,278.897461 658.270325,278.851471 
	C663.030396,278.740082 664.172852,281.246155 664.047058,285.485718 
	C663.937195,289.187256 662.687012,291.016327 658.768677,291.002289 
	C638.940186,290.931183 619.111206,290.946075 599.282593,290.992889 
	C595.819763,291.001068 593.948059,289.713684 594.021423,286.021820 
	C594.088867,282.623993 593.692688,279.509155 598.651611,278.787567 
	C602.661621,278.204102 607.004578,278.805847 610.699036,276.215881 
	C613.342773,274.362518 615.001099,272.277557 614.993347,268.870453 
	C614.933655,242.710007 615.000732,216.549179 614.887939,190.389069 
	C614.872314,186.755203 614.232971,183.100708 613.635864,179.496597 
	C610.628357,161.341934 596.658752,156.765320 582.354187,158.309525 
	C573.061279,159.312698 564.169556,162.184875 555.744995,166.452301 
	C553.127014,167.778397 552.013855,169.413086 552.016724,172.231644 
	C552.049438,204.557480 552.001343,236.883469 552.086975,269.209106 
	C552.099792,274.051453 555.670105,277.428833 560.551270,277.980896 
	C562.530701,278.204803 564.494629,278.766113 566.469788,278.787598 
	C570.828552,278.835052 572.088318,281.036560 572.068359,285.146027 
	C572.047546,289.462708 570.360596,291.060150 566.105835,291.033997 
	C547.277527,290.918182 528.447876,290.948303 509.619019,291.007812 
	C506.002106,291.019226 503.921326,289.875397 503.999908,285.862549 
	C504.068481,282.361511 503.965454,279.542786 508.823425,278.822449 
	C525.029785,276.419342 525.002380,276.230133 525.001648,259.898529 
	C525.000549,236.403763 525.016052,212.908951 524.985352,189.414230 
	C524.976562,182.683395 523.935547,176.085617 520.875732,170.049942 
	C516.299622,161.023132 505.574432,156.490784 492.857239,158.186401 
	C483.729950,159.403397 475.051880,162.256836 466.676849,166.104996 
	C463.419037,167.601913 461.946472,169.703384 461.958862,173.420090 
	C462.064514,205.079300 461.990601,236.739059 462.053894,268.398499 
	C462.065521,274.223450 465.456848,277.565125 471.246765,277.991516 
	C472.574188,278.089294 473.914093,278.130890 475.222900,278.349915 
	C482.785004,279.615417 483.339447,280.309387 482.976410,286.358063 
	C482.596771,292.683838 477.814270,290.499756 473.907379,291.000031 
z"/>
<path fill="#fff" opacity="1.000000" stroke="none" 
	d="
M906.391968,167.726990 
	C907.802124,173.167389 908.041321,178.292389 908.029541,183.480423 
	C907.966492,211.145950 907.986572,238.811722 908.012878,266.477386 
	C908.020752,274.748199 910.727478,277.546082 918.827576,278.051208 
	C920.812134,278.174927 922.777649,278.596588 924.753479,278.869537 
	C930.659973,279.685516 931.370850,280.692291 930.961304,286.516937 
	C930.739014,289.677887 929.209412,290.964874 926.195801,290.962738 
	C906.030212,290.948517 885.864624,290.939972 865.699036,290.964142 
	C862.254578,290.968292 860.932251,289.186829 861.032166,285.947937 
	C861.128601,282.821930 860.511841,279.753296 865.223694,278.897064 
	C881.033447,276.024078 881.006714,275.872284 881.005798,259.552765 
	C881.004395,235.386963 880.975098,211.221100 881.024658,187.055405 
	C881.033264,182.848770 880.470642,178.765839 879.267334,174.759155 
	C875.735107,162.997360 866.398193,159.158310 855.551880,158.194412 
	C842.226196,157.010178 829.876770,160.836945 818.124268,166.927994 
	C815.185425,168.451111 815.004944,170.926254 815.006348,173.676910 
	C815.016235,193.176193 815.002197,212.675491 815.001160,232.174774 
	C815.000488,244.007675 814.960388,255.840866 815.032776,267.673340 
	C815.074463,274.486511 818.121155,277.515045 825.022400,278.040344 
	C826.839844,278.178680 828.637634,278.785461 830.445923,278.792542 
	C834.817200,278.809692 836.067139,281.044373 836.063110,285.137665 
	C836.058838,289.451385 834.369141,291.058594 830.108704,291.033722 
	C810.610168,290.919891 791.110413,290.948792 771.611389,291.007904 
	C767.989075,291.018890 765.912292,289.867371 765.999817,285.856964 
	C766.075928,282.365173 765.846558,278.970764 770.856873,278.935516 
	C772.664917,278.922821 774.460938,278.324860 776.276855,278.125366 
	C786.419373,277.011383 787.997192,275.269226 787.999756,264.907013 
	C788.007874,232.574829 788.010498,200.242661 787.995422,167.910477 
	C787.991821,160.214432 787.791443,160.046494 780.154724,160.001709 
	C777.154907,159.984116 774.154907,159.997070 771.155396,159.958374 
	C768.906799,159.929382 766.496277,159.756271 766.256226,156.890091 
	C766.002930,153.865433 764.746948,149.716904 768.665161,148.561539 
	C781.698914,144.718201 794.172913,138.594131 808.054626,138.061188 
	C814.425781,137.816589 814.895447,138.517761 814.994263,144.810196 
	C815.145691,154.456055 815.155212,154.474808 823.814819,150.082428 
	C835.118774,144.348831 846.423340,138.372955 859.194885,136.856262 
	C882.969604,134.032898 901.071167,144.245224 906.391968,167.726990 
z"/>
<path fill="#fff" opacity="1.000000" stroke="none" 
	d="
M391.785889,279.101135 
	C396.688507,281.237885 394.990051,285.167114 394.577820,288.338837 
	C394.177551,291.418518 391.143890,290.955261 388.879761,290.964966 
	C377.383148,291.014343 365.883636,290.847748 354.390656,291.058350 
	C349.651398,291.145203 347.722961,289.407074 347.924652,284.633118 
	C348.039459,281.914703 349.313232,277.994293 346.887970,276.672882 
	C344.118011,275.163727 341.705994,278.707916 339.263123,280.207245 
	C325.434326,288.694702 311.088867,294.965240 294.246490,294.128143 
	C272.795288,293.062042 257.766022,279.036530 256.034546,257.534302 
	C253.744370,229.093689 255.593262,200.600327 255.010162,172.137375 
	C254.952148,169.305878 254.942749,166.472687 254.958801,163.640564 
	C254.976303,160.550934 253.497589,159.035507 250.390625,159.036240 
	C246.225494,159.037216 242.060226,158.990295 237.895264,158.943558 
	C235.568222,158.917435 233.344147,158.447327 233.212143,155.610764 
	C233.078552,152.740601 231.729523,148.661148 235.159470,147.510773 
	C248.046753,143.188507 260.564026,137.306931 274.301544,136.117645 
	C281.548218,135.490295 281.983398,136.323654 281.987915,143.556641 
	C282.008087,175.881104 282.036560,208.205643 281.963043,240.529922 
	C281.951141,245.762222 282.748535,250.841995 284.232178,255.777847 
	C287.301086,265.987946 294.649384,271.576355 304.925812,272.759460 
	C318.622131,274.336212 331.778992,271.818970 344.261749,265.868073 
	C346.818665,264.649139 347.986359,262.848938 347.983063,259.998383 
	C347.946136,228.007431 347.945068,196.016418 347.985687,164.025467 
	C347.990295,160.384674 346.280518,158.929886 342.773346,158.999222 
	C338.943115,159.074921 335.109344,158.996765 331.277527,158.951492 
	C329.049744,158.925171 326.551453,158.830322 326.290344,155.993164 
	C326.014221,152.992218 324.584015,148.682419 328.257751,147.470520 
	C341.315857,143.162857 353.935730,137.062180 367.904236,136.095245 
	C374.479126,135.640091 374.981415,136.459824 374.985260,143.159378 
	C375.008148,183.315018 374.997467,223.470642 375.002167,263.626282 
	C375.003540,275.464233 375.838684,276.430542 387.457245,278.249756 
	C388.771545,278.455536 390.069824,278.763794 391.785889,279.101135 
z"/>
<path fill="#fff" opacity="1.000000" stroke="none" 
	d="
M1244.002930,291.000610 
	C1240.005127,290.995697 1236.500122,290.853424 1233.010010,291.021454 
	C1228.844116,291.221954 1226.929321,289.656036 1226.914062,285.257507 
	C1226.903687,282.263000 1228.635376,278.004181 1225.557617,276.524292 
	C1223.043823,275.315643 1220.448975,278.882019 1217.945679,280.407257 
	C1204.246338,288.754150 1190.036987,294.957245 1173.378784,294.129730 
	C1151.619751,293.048889 1136.691895,279.022980 1135.015625,257.177582 
	C1132.782471,228.073746 1134.520264,198.921692 1134.033081,169.795715 
	C1133.852417,158.997849 1134.001099,158.995468 1123.054810,158.988586 
	C1121.722046,158.987747 1120.384399,159.057770 1119.057495,158.968018 
	C1116.210571,158.775436 1112.616089,159.776154 1112.136353,155.278030 
	C1111.691406,151.105682 1111.830688,147.503220 1117.166260,146.009689 
	C1126.936279,143.274902 1136.544067,139.960480 1146.224365,136.903366 
	C1147.174194,136.603455 1148.145996,136.327179 1149.128662,136.184357 
	C1159.766235,134.638168 1160.997314,135.699203 1160.998535,146.380264 
	C1161.002075,177.866074 1161.034912,209.351944 1160.967529,240.837601 
	C1160.956665,245.899918 1161.787109,250.802353 1163.180420,255.590714 
	C1166.096680,265.613037 1173.179688,271.350739 1183.235229,272.655731 
	C1197.261719,274.476135 1210.726807,271.860077 1223.529175,265.749878 
	C1226.980835,264.102478 1226.999023,261.269562 1226.997681,258.207947 
	C1226.988403,236.384460 1226.997559,214.560959 1226.999756,192.737473 
	C1227.000610,184.241302 1227.012329,175.745117 1226.994141,167.248993 
	C1226.976562,159.053207 1226.928101,159.020584 1218.502319,158.989532 
	C1215.670410,158.979095 1212.838135,158.979965 1210.006470,158.946182 
	C1207.715820,158.918854 1205.381226,158.583694 1205.237915,155.729874 
	C1205.087280,152.729004 1203.623169,148.529968 1207.487427,147.326050 
	C1220.612427,143.236877 1233.158569,136.902557 1247.163574,136.083786 
	C1253.417969,135.718155 1253.978149,136.542084 1253.982178,142.918213 
	C1254.008301,183.566528 1253.994507,224.214859 1254.004517,264.863190 
	C1254.007080,275.140533 1255.554077,276.876099 1265.699463,278.140747 
	C1273.400757,279.100769 1274.292603,280.094391 1274.003540,286.268341 
	C1273.843384,289.687958 1272.236816,290.995209 1268.990845,290.980316 
	C1260.828125,290.942902 1252.665161,290.988403 1244.002930,291.000610 
z"/>
<path fill="#fff" opacity="1.000000" stroke="none" 
	d="
M995.003052,139.896133 
	C1017.338806,133.445740 1038.642090,134.537659 1058.357422,146.765778 
	C1077.766235,158.803787 1088.445557,176.921280 1091.850952,199.292648 
	C1094.258911,215.112686 1093.461548,230.740845 1088.165649,246.065918 
	C1078.162354,275.012787 1051.935669,293.736328 1021.369629,294.075409 
	C1000.329041,294.308777 982.014343,288.128510 967.355164,272.764008 
	C955.340027,260.170746 949.190857,244.838684 946.902222,227.663162 
	C945.316223,215.761246 945.960876,204.054016 948.774353,192.520615 
	C954.957397,167.174271 969.740295,149.132355 995.003052,139.896133 
z"/>
<path fill="#fff" opacity="1.000000" stroke="none" 
	d="
M209.955353,291.000336 
	C165.471512,290.999237 121.480675,291.006104 77.489838,290.988922 
	C70.435944,290.986176 69.970795,290.260681 69.960617,283.236267 
	C69.953964,278.641785 72.105392,276.905426 76.371819,277.032898 
	C80.383064,277.152771 84.348701,276.794769 88.280235,275.968475 
	C92.380386,275.106689 94.727921,272.719849 94.930252,268.461029 
	C95.025063,266.465271 94.999771,264.463013 94.999893,262.463684 
	C95.003059,211.141037 95.003761,159.818390 95.001343,108.495743 
	C95.000786,96.808968 94.199806,95.847488 82.716698,94.244110 
	C80.581795,93.946014 78.394768,94.022575 76.231972,93.922562 
	C72.099991,93.731506 69.872948,92.014801 69.948723,87.428329 
	C70.058876,80.761696 70.522018,80.022667 77.327034,80.014572 
	C98.489258,79.989395 119.651550,79.988716 140.813766,80.016258 
	C147.276886,80.024673 147.876022,80.589500 147.973129,86.087799 
	C148.086777,92.522461 147.039215,93.695976 140.623062,93.962921 
	C136.619324,94.129509 132.586914,94.389519 128.911560,95.980553 
	C125.198738,97.587814 123.903999,100.669884 123.930420,104.851624 
	C124.085175,129.345520 124.000557,153.840927 123.999840,178.335815 
	C123.998970,208.329575 123.990921,238.323318 124.009377,268.317078 
	C124.013931,275.719330 124.273979,275.983063 131.571259,275.991699 
	C150.733902,276.014343 169.896622,276.021088 189.059219,275.982666 
	C195.978729,275.968811 198.069138,274.427551 199.227417,267.711121 
	C200.921326,257.888855 202.402740,248.023697 203.678452,238.138580 
	C204.205750,234.052658 206.273010,233.009872 210.027588,232.959549 
	C220.995453,232.812561 220.996033,232.702515 220.997559,243.800339 
	C220.999329,256.797638 221.009735,269.794952 220.991837,282.792206 
	C220.980713,290.866730 220.882767,290.946167 212.947632,290.997864 
	C212.114578,291.003296 211.281448,290.999725 209.955353,291.000336 
z"/>
<path fill="#fff" opacity="1.000000" stroke="none" 
	d="
M1391.994629,171.865265 
	C1391.717773,174.878235 1392.971313,178.471222 1389.758667,179.373611 
	C1385.485840,180.573776 1380.857544,180.694153 1376.521484,179.093140 
	C1375.190918,178.601822 1375.143188,176.944534 1374.969360,175.603592 
	C1374.328735,170.659958 1373.623779,165.724396 1373.021973,160.776169 
	C1372.811768,159.049164 1372.330444,157.652390 1370.833618,156.525284 
	C1362.232788,150.048965 1343.098877,149.009476 1334.043579,154.611099 
	C1322.892212,161.509354 1320.935791,177.889297 1330.160278,187.610245 
	C1334.458618,192.139923 1339.781128,195.281570 1345.274170,198.092697 
	C1354.459717,202.793686 1363.751221,207.287827 1372.935059,211.992020 
	C1389.191528,220.318909 1397.855225,233.078445 1395.963013,251.913605 
	C1394.221191,269.253326 1385.202881,281.268768 1369.329224,288.185181 
	C1354.675659,294.569946 1339.209961,294.825287 1323.679688,293.572479 
	C1315.909790,292.945740 1308.189819,291.623688 1300.713257,289.111572 
	C1297.351807,287.982178 1295.920288,286.144562 1295.969849,282.570923 
	C1296.113281,272.240692 1296.107544,261.906128 1295.980103,251.575485 
	C1295.929565,247.480621 1297.684692,245.733154 1301.686646,246.007721 
	C1302.681519,246.075943 1303.704590,246.132935 1304.682373,245.983749 
	C1309.986084,245.174500 1312.238525,247.660645 1312.727783,252.767639 
	C1313.250488,258.223663 1314.306152,263.626648 1314.953247,269.073669 
	C1315.210327,271.237701 1315.895508,272.888031 1317.905640,273.898438 
	C1328.308960,279.127686 1339.165039,281.715454 1350.747070,278.997162 
	C1362.200195,276.309143 1369.174805,268.430206 1370.754028,256.874969 
	C1371.929688,248.272842 1366.487183,239.159622 1357.269775,233.622208 
	C1347.816162,227.942978 1337.536011,223.960327 1327.815674,218.852631 
	C1319.708618,214.592651 1311.604370,210.179932 1305.719604,202.848694 
	C1291.876099,185.602631 1296.313477,152.458481 1323.014404,142.010635 
	C1344.525879,133.593369 1366.276123,134.548721 1387.957642,141.848404 
	C1391.032349,142.883606 1392.010986,144.886627 1391.989990,147.890091 
	C1391.935303,155.722107 1391.986694,163.554840 1391.994629,171.865265 
z"/>
<path fill="#fff" opacity="1.000000" stroke="none" 
	d="
M729.734680,272.750397 
	C733.455627,279.534668 740.086243,278.062866 745.548645,278.744812 
	C750.442627,279.355774 751.030945,281.755371 751.035034,285.737518 
	C751.039490,290.098969 748.744690,291.030182 745.009827,291.017242 
	C725.346741,290.949219 705.683289,290.969635 686.019958,291.001251 
	C682.696167,291.006592 680.056152,290.542725 680.003357,286.268921 
	C679.954529,282.313629 679.955933,278.687988 685.414429,278.837555 
	C686.061096,278.855286 686.712402,278.560608 687.367310,278.442444 
	C701.998413,275.801971 701.999756,275.802826 701.999695,260.687012 
	C701.999573,229.692215 702.007812,198.697433 701.989746,167.702637 
	C701.985413,160.284180 701.725159,160.057098 694.447021,160.002914 
	C691.281067,159.979340 688.114807,159.988388 684.949036,159.954529 
	C682.645081,159.929901 680.383789,159.551559 680.215576,156.690079 
	C680.046326,153.812988 678.816956,149.820648 682.403809,148.708206 
	C695.524719,144.638855 708.093079,138.319397 722.207703,138.044571 
	C728.475037,137.922531 728.975891,138.533386 728.980042,144.971695 
	C729.005554,184.798325 728.986023,224.624985 729.021118,264.451569 
	C729.023438,267.100586 729.352661,269.749298 729.734680,272.750397 
z"/>
<path fill="#fff" opacity="1.000000" stroke="none" 
	d="
M699.846069,92.800339 
	C695.579224,75.994949 709.019165,65.903824 721.138489,68.428520 
	C729.897400,70.253189 735.980957,77.801201 735.959595,86.579704 
	C735.937805,95.540558 729.729553,103.205414 721.221863,104.775269 
	C711.793884,106.514946 703.828003,102.175285 699.846069,92.800339 
z"/>
<path fill="#2A3E3E" opacity="1.000000" stroke="none" 
	d="
M1044.729858,269.745667 
	C1022.119141,288.469788 993.491089,279.923035 982.980225,251.304581 
	C974.237366,227.500092 974.130737,203.352020 982.850830,179.558853 
	C987.294006,167.435394 994.469299,157.009155 1007.695801,152.669281 
	C1023.700989,147.417648 1039.849976,152.848083 1049.532593,166.666855 
	C1057.487915,178.020462 1060.913452,190.804901 1062.099365,204.504288 
	C1063.495605,220.633987 1062.362427,236.366531 1056.397339,251.495392 
	C1053.768921,258.161560 1050.057251,264.301392 1044.729858,269.745667 
z"/>
</svg>