<svg width="25" height="24" viewBox="0 0 25 24" fill="none" xmlns="http://www.w3.org/2000/svg">
<path d="M18.0101 15.1549H16.926L16.5418 14.7934C17.8866 13.2673 18.6962 11.2859 18.6962 9.13055C18.6962 4.32446 14.703 0.428711 9.7768 0.428711C4.85056 0.428711 0.857422 4.32446 0.857422 9.13055C0.857422 13.9366 4.85056 17.8324 9.7768 17.8324C11.9861 17.8324 14.0169 17.0425 15.5813 15.7306L15.9518 16.1054V17.163L22.8128 23.8433L24.8574 21.8486L18.0101 15.1549ZM9.7768 15.1549C6.35999 15.1549 3.60185 12.464 3.60185 9.13055C3.60185 5.79707 6.35999 3.1062 9.7768 3.1062C13.1936 3.1062 15.9518 5.79707 15.9518 9.13055C15.9518 12.464 13.1936 15.1549 9.7768 15.1549Z" fill="black"/>
</svg>
